<svg width="104" height="24" viewBox="0 0 104 24" fill="none" xmlns="http://www.w3.org/2000/svg">
<g clip-path="url(#clip0_136_1736)">
<g clip-path="url(#clip1_136_1736)">
<path d="M96.9752 7.45944C100.704 7.45944 103.48 10.5139 103.48 14.5511C103.48 18.5883 100.704 21.6428 96.9752 21.6428C95.3357 21.6428 93.9343 21.0319 92.9031 19.9694V21.324H89.0425V2.20044C91.1745 2.20044 92.9031 3.93661 92.9031 6.07828V9.13274C93.9343 8.07031 95.3357 7.45944 96.9752 7.45944ZM96.2083 17.8977C98.1121 17.8977 99.5135 16.4635 99.5135 14.5511C99.5135 12.6387 98.1121 11.2045 96.2083 11.2045C94.3046 11.2045 92.9031 12.6387 92.9031 14.5511C92.9031 16.4635 94.3046 17.8977 96.2083 17.8977Z" fill="#101113"/>
<path d="M87.4038 7.84204H87.9856V11.8261H87.4038C85.0504 11.8261 83.7547 13.1807 83.7547 15.279V21.6004H79.894V8.05453H83.7547V9.59503C84.7067 8.47951 85.9495 7.84204 87.4038 7.84204Z" fill="#101113"/>
<path d="M69.176 21.6522C63.6759 21.6522 59.5244 17.5619 59.5244 12.1701C59.5244 6.77832 63.6759 2.68799 69.176 2.68799C74.6495 2.68799 78.8273 6.77832 78.8273 12.1701C78.8273 17.5619 74.6495 21.6522 69.176 21.6522ZM69.176 17.6947C72.2697 17.6947 74.6229 15.3308 74.6229 12.1701C74.6229 9.00941 72.2697 6.6455 69.176 6.6455C66.0822 6.6455 63.7288 9.00941 63.7288 12.1701C63.7288 15.3308 66.0822 17.6947 69.176 17.6947Z" fill="#101113"/>
<path d="M52.7704 21.6074C50.2055 21.6074 48.3015 20.6512 46.9795 19.5622L48.7775 17.0656C49.8089 17.9421 51.0781 18.5264 52.6381 18.5264C53.9073 18.5264 54.7799 18.1545 54.7799 17.4374C54.7799 16.6672 53.7487 16.4015 52.3738 16.0828C50.2318 15.6047 47.4026 14.9673 47.4026 11.78C47.4026 8.85835 49.941 7.42407 53.0084 7.42407C55.3882 7.42407 57.107 8.27401 58.3762 9.20364L56.5782 11.7003C55.5733 11.0098 54.4627 10.5051 53.1407 10.5051C52.1093 10.5051 51.2632 10.7973 51.2632 11.4879C51.2632 12.2581 52.2944 12.4972 53.6693 12.7893C55.7848 13.2408 58.6405 13.9049 58.6405 17.0656C58.6405 20.0403 56.0493 21.6074 52.7704 21.6074Z" fill="#101113"/>
<path d="M40.325 21.6074C36.1735 21.6074 33.0532 18.5529 33.0532 14.5158C33.0532 10.4786 36.1735 7.42407 40.325 7.42407C43.0485 7.42407 45.3225 8.72556 46.5654 10.7973L43.2071 12.8424C42.6519 11.8331 41.5942 11.1691 40.325 11.1691C38.421 11.1691 37.0196 12.6034 37.0196 14.5158C37.0196 16.4281 38.421 17.8624 40.325 17.8624C41.5942 17.8624 42.6519 17.1984 43.2071 16.1891L46.5654 18.2342C45.3225 20.306 43.0485 21.6074 40.325 21.6074Z" fill="#101113"/>
<path d="M24.818 21.6074C20.6666 21.6074 17.5464 18.5529 17.5464 14.5158C17.5464 10.4786 20.6666 7.42407 24.818 7.42407C28.9695 7.42407 32.0898 10.4786 32.0898 14.5158C32.0898 18.5529 28.9695 21.6074 24.818 21.6074ZM24.818 17.8624C26.7218 17.8624 28.1232 16.4281 28.1232 14.5158C28.1232 12.6034 26.7218 11.1691 24.818 11.1691C22.9143 11.1691 21.5128 12.6034 21.5128 14.5158C21.5128 16.4281 22.9143 17.8624 24.818 17.8624Z" fill="#101113"/>
<path d="M7.17673 3.3147C12.4917 3.3147 16.4845 7.24566 16.4845 12.4781C16.4845 17.7105 12.4917 21.6415 7.17673 21.6415H-0.015625V3.3147H7.17673ZM7.07096 17.7636C10.0589 17.7636 12.2801 15.4794 12.2801 12.4781C12.2801 9.47676 10.0589 7.19254 7.07096 7.19254H4.08295V17.7636H7.07096Z" fill="#101113"/>
</g>
</g>
<defs>
<clipPath id="clip0_136_1736">
<rect width="103.507" height="19.599" fill="white" transform="translate(0 2)"/>
</clipPath>
<clipPath id="clip1_136_1736">
<rect width="103.685" height="19.599" fill="white" transform="translate(-0.0595703 2.20044)"/>
</clipPath>
</defs>
</svg>
